<svg xmlns="http://www.w3.org/2000/svg" version="1.1" xmlns:xlink="http://www.w3.org/1999/xlink" xmlns:svgjs="http://svgjs.dev/svgjs" width="1000" height="750" viewBox="0 0 1000 750"><rect width="1000" height="750" fill="#ffffff"></rect><g transform="matrix(0.834,0,0,0.834,82.49454545454546,217.3500178018963)"><svg viewBox="0 0 396 150" data-background-color="#1b4571" preserveAspectRatio="xMidYMid meet" height="378" width="1000" xmlns="http://www.w3.org/2000/svg" xmlns:xlink="http://www.w3.org/1999/xlink"><g id="tight-bounds" transform="matrix(1,0,0,1,0.2400000000000091,0.011410965562646425)"><svg viewBox="0 0 395.52 149.9771776607143" height="149.9771776607143" width="395.52"><g><svg viewBox="0 0 395.52 149.9771776607143" height="149.9771776607143" width="395.52"><g><svg viewBox="0 0 395.52 149.9771776607143" height="149.9771776607143" width="395.52"><g id="textblocktransform"><svg viewBox="0 0 395.52 149.9771776607143" height="149.9771776607143" width="395.52" id="textblock"><g><svg viewBox="0 0 395.52 102.00840677966103" height="102.00840677966103" width="395.52"><g transform="matrix(1,0,0,1,0,0)"><svg width="395.52" viewBox="0 -29.5 176.99000549316406 45.650001525878906" height="102.00840677966103" data-palette-color="#ffffff"><path d="M4.5 0L0 0 0-29.5 4.5-29.5 4.5 0ZM7.5 0L6 0 6-29.5 7.5-29.5 7.5 0ZM10.5 0L9 0 9-29.5 10.5-29.5 10.5 0ZM18 0L16.5 0 16.5-29.5 18-29.5 18 0ZM24 0L19.5 0 19.5-29.5 24-29.5 24 0ZM15.75 15.95L14.6 12.55 10.85 12.55 9.7 15.95 8.4 15.95 12.65 4.15 12.8 4.15 17.1 15.95 15.75 15.95ZM11.2 11.55L14.25 11.55 12.75 7.15 11.2 11.55ZM30 0L25.5 0 25.5-29.5 30-29.5 30 0ZM33 0L31.5 0 31.5-29.5 33-29.5 33 0ZM36 0L34.5 0 34.5-29.5 36-29.5 36 0ZM42 0L37.5 0 37.5-29.5 42-29.5 42 0ZM49.5 0L48 0 48-29.5 49.5-29.5 49.5 0ZM34.65 15.95L34.65 4.35 38.05 4.35Q40.05 4.35 40.95 5.25L40.95 5.25Q41.9 6.1 41.9 7.7L41.9 7.7Q41.9 8.7 41.25 9.6L41.25 9.6Q40.6 10.5 39.55 10.8L39.55 10.8 42.25 15.95 40.8 15.95 38.2 10.85 35.95 10.85 35.95 15.95 34.65 15.95ZM35.95 9.7L38.2 9.7Q39.4 9.7 40 9.15L40 9.15Q40.55 8.65 40.55 7.7L40.55 7.7Q40.55 6.75 40 6.15L40 6.15Q39.4 5.6 38.2 5.6L38.2 5.6 35.95 5.6 35.95 9.7ZM55.5 0L51 0 51-29.5 55.5-29.5 55.5 0ZM61.5 0L57 0 57-29.5 61.5-29.5 61.5 0ZM64.5 0L63 0 63-29.5 64.5-29.5 64.5 0ZM72 0L70.5 0 70.5-29.5 72-29.5 72 0ZM75 0L73.5 0 73.5-29.5 75-29.5 75 0ZM64.4 16.15L64.4 16.15Q63.1 16.15 62.1 15.5L62.1 15.5Q61.05 14.85 60.45 13.55L60.45 13.55Q59.85 12.2 59.85 10.2L59.85 10.2Q59.85 8.1 60.5 6.75L60.5 6.75Q61.15 5.45 62.15 4.85L62.15 4.85Q63.15 4.3 64.3 4.3L64.3 4.3Q65.55 4.3 66.45 4.9L66.45 4.9Q67.34 5.5 67.8 6.55L67.8 6.55 66.7 7.1 66.55 7.15 66.5 7.05 66.5 6.9Q66.5 6.7 66.25 6.35L66.25 6.35Q65.84 5.8 65.34 5.55L65.34 5.55Q64.84 5.3 64.3 5.3L64.3 5.3Q62.8 5.3 61.95 6.6L61.95 6.6Q61.15 7.85 61.15 10.15L61.15 10.15Q61.15 11.55 61.55 12.7L61.55 12.7Q62 13.8 62.7 14.4L62.7 14.4Q63.45 15 64.34 15L64.34 15Q65.05 15 65.65 14.65L65.65 14.65Q66.3 14.25 66.7 13.6L66.7 13.6 67.65 14.25Q67.05 15.2 66.3 15.65L66.3 15.65Q65.5 16.15 64.4 16.15ZM80.99 0L76.49 0 76.49-29.5 80.99-29.5 80.99 0ZM83.99 0L82.49 0 82.49-29.5 83.99-29.5 83.99 0ZM86.99 0L85.49 0 85.49-29.5 86.99-29.5 86.99 0ZM94.49 0L92.99 0 92.99-29.5 94.49-29.5 94.49 0ZM100.49 0L95.99 0 95.99-29.5 100.49-29.5 100.49 0ZM92.24 15.95L91.09 12.55 87.34 12.55 86.19 15.95 84.89 15.95 89.14 4.15 89.29 4.15 93.59 15.95 92.24 15.95ZM87.69 11.55L90.74 11.55 89.24 7.15 87.69 11.55ZM103.49 0L101.99 0 101.99-29.5 103.49-29.5 103.49 0ZM106.49 0L104.99 0 104.99-29.5 106.49-29.5 106.49 0ZM112.49 0L107.99 0 107.99-29.5 112.49-29.5 112.49 0ZM118.49 0L113.99 0 113.99-29.5 118.49-29.5 118.49 0ZM125.99 0L124.49 0 124.49-29.5 125.99-29.5 125.99 0ZM113.94 15.95L113.94 5.5 110.69 5.5 110.69 4.35 118.69 4.35 118.69 5.5 115.29 5.5 115.29 15.95 113.94 15.95ZM131.99 0L127.49 0 127.49-29.5 131.99-29.5 131.99 0ZM137.99 0L133.49 0 133.49-29.5 137.99-29.5 137.99 0ZM140.99 0L139.49 0 139.49-29.5 140.99-29.5 140.99 0ZM148.49 0L146.99 0 146.99-29.5 148.49-29.5 148.49 0ZM151.49 0L149.99 0 149.99-29.5 151.49-29.5 151.49 0ZM140.89 16.15L140.89 16.15Q139.59 16.15 138.59 15.5L138.59 15.5Q137.54 14.85 136.94 13.55L136.94 13.55Q136.34 12.2 136.34 10.2L136.34 10.2Q136.34 8.1 136.99 6.75L136.99 6.75Q137.64 5.45 138.64 4.85L138.64 4.85Q139.64 4.3 140.79 4.3L140.79 4.3Q142.04 4.3 142.94 4.9L142.94 4.9Q143.84 5.5 144.29 6.55L144.29 6.55 143.19 7.1 143.04 7.15 142.99 7.05 142.99 6.9Q142.99 6.7 142.74 6.35L142.74 6.35Q142.34 5.8 141.84 5.55L141.84 5.55Q141.34 5.3 140.79 5.3L140.79 5.3Q139.29 5.3 138.44 6.6L138.44 6.6Q137.64 7.85 137.64 10.15L137.64 10.15Q137.64 11.55 138.04 12.7L138.04 12.7Q138.49 13.8 139.19 14.4L139.19 14.4Q139.94 15 140.84 15L140.84 15Q141.54 15 142.14 14.65L142.14 14.65Q142.79 14.25 143.19 13.6L143.19 13.6 144.14 14.25Q143.54 15.2 142.79 15.65L142.79 15.65Q141.99 16.15 140.89 16.15ZM157.49 0L152.99 0 152.99-29.5 157.49-29.5 157.49 0ZM160.49 0L158.99 0 158.99-29.5 160.49-29.5 160.49 0ZM163.49 0L161.99 0 161.99-29.5 163.49-29.5 163.49 0ZM173.99 0L169.49 0 169.49-29.5 173.99-29.5 173.99 0ZM176.99 0L175.49 0 175.49-29.5 176.99-29.5 176.99 0ZM162.04 15.95L162.04 4.35 163.54 4.35 163.54 4.5Q163.44 4.6 163.39 4.75L163.39 4.75Q163.39 4.85 163.39 5.2L163.39 5.2 163.39 9.3 167.89 9.3 167.89 4.35 169.44 4.35 169.44 4.5Q169.34 4.6 169.29 4.75L169.29 4.75Q169.29 4.85 169.29 5.2L169.29 5.2 169.29 15.95 167.89 15.95 167.89 10.45 163.39 10.45 163.39 15.95 162.04 15.95Z" opacity="1" transform="matrix(1,0,0,1,0,0)" fill="#000000" class="wordmark-text-0" data-fill-palette-color="primary" id="text-0"></path></svg></g></svg></g><g transform="matrix(1,0,0,1,0,126.09014341857629)"><svg viewBox="0 0 232.209792 23.887034242138004" height="23.887034242138004" width="232.209792"><g transform="matrix(1,0,0,1,0,0)"><svg width="232.209792" viewBox="-0.8500000238418579 -35.099998474121094 434 44.64999771118164" height="23.887034242138004" data-palette-color="#ffffff"><path d="M4.2-23.05L4.95-20.1 10.45-4.3 10.8-4.3 16.5-19.75 17.25-22.9 20.8-22.9 12.6-0.8Q11.35 2.6 9.93 4.55 8.5 6.5 6.48 7.63 4.45 8.75 1.15 9.55L1.15 9.55 0.8 9.55Q-0.25 8.5-0.85 7.2L-0.85 7.2-0.75 6.75Q3.05 6 5.08 4.63 7.1 3.25 8.85 0L8.85 0 0.45-22.8 4.2-23.05ZM33.2-23.3Q37.85-23.3 40.42-20.28 43-17.25 43-11.75L43-11.75Q43-5.95 40.3-2.78 37.6 0.4 32.6 0.4L32.6 0.4Q27.9 0.4 25.32-2.63 22.75-5.65 22.75-11.15L22.75-11.15Q22.75-16.95 25.47-20.13 28.2-23.3 33.2-23.3L33.2-23.3ZM32.95-20.5Q29.8-20.5 28.15-18.35 26.5-16.2 26.5-12.05L26.5-12.05Q26.5-7.25 28.12-4.85 29.75-2.45 32.85-2.45L32.85-2.45Q36-2.45 37.65-4.55 39.3-6.65 39.3-10.85L39.3-10.85Q39.3-15.6 37.67-18.05 36.05-20.5 32.95-20.5L32.95-20.5ZM69.3-3.3L69.7-2.95 69.3-0.7Q67.85 0.15 66.45 0.3L66.45 0.3Q65 0.1 64.12-0.73 63.25-1.55 62.9-3.2L62.9-3.2 62.6-3.2Q59.6-0.5 56.4 0.3L56.4 0.3Q52.7 0.3 50.77-1.45 48.85-3.2 48.9-6.45L48.9-6.45 48.95-12.8 48.8-22.65 52.8-23 52.5-7.4Q52.5-5.35 53.47-4.2 54.45-3.05 56.35-3.05L56.35-3.05Q59.45-3.05 62.55-6.05L62.55-6.05 62.55-22.65 66.35-23 66.1-4.9Q66.1-3.85 66.42-3.43 66.75-3 67.55-3L67.55-3Q68.35-3 69.3-3.3L69.3-3.3ZM84.69-22.95Q85.29-22.95 85.99-22.85L85.99-22.85 85.99-19 85.54-18.85Q84.69-19.1 83.69-19.1L83.69-19.1Q82.04-19.1 80.67-17.78 79.29-16.45 77.94-13.55L77.94-13.55 77.89-10.05 78.14 0 74.19 0 74.44-9.7 74.24-22.65 77.99-23 77.94-18.3 78.24-18.3Q79.64-20.8 81.34-21.88 83.04-22.95 84.69-22.95L84.69-22.95ZM112.79 0L113.04-15.55Q113.09-17.6 112.09-18.75 111.09-19.9 109.14-19.9L109.14-19.9Q105.99-19.9 102.34-16.35L102.34-16.35 102.34-10.05 102.54 0 98.59 0 98.84-9.7 98.64-22.65 102.39-23 102.39-19.65 102.69-19.65Q105.79-22.4 109.04-23.2L109.04-23.2Q112.79-23.2 114.76-21.45 116.74-19.7 116.69-16.45L116.69-16.45 116.59-9.95 116.79 0 112.79 0ZM140.54-11.65L126.19-11.6 126.19-11.5Q126.19-7.3 128.09-5.05 129.99-2.8 133.49-2.8L133.49-2.8Q135.24-2.8 136.99-3.38 138.74-3.95 140.19-5L140.19-5 140.59-4.7 139.99-1.3Q136.49 0.4 132.99 0.4L132.99 0.4Q128.09 0.4 125.29-2.73 122.49-5.85 122.49-11.3L122.49-11.3Q122.49-16.8 125.29-20.05 128.09-23.3 132.84-23.3L132.84-23.3Q136.84-23.3 139.04-21.03 141.24-18.75 141.24-14.7L141.24-14.7Q141.24-13.35 141.04-12.15L141.04-12.15 140.54-11.65ZM132.84-20.5Q130.34-20.5 128.66-18.88 126.99-17.25 126.44-14.3L126.44-14.3 137.49-14.5 137.59-15.2Q137.59-17.75 136.36-19.13 135.14-20.5 132.84-20.5L132.84-20.5ZM148.08-23.05L148.63-20.1 152.83-4.3 153.13-4.3 157.98-19.9 158.73-22.9 162.63-22.9 163.18-20.1 167.38-4.3 167.68-4.3 172.53-19.9 173.28-22.9 176.73-22.9 169.18 0 165.43 0 160.63-17.75 160.28-17.75 154.73 0 150.83 0 144.43-22.8 148.08-23.05ZM206.88-35.1L206.53-10.05 206.68-4.9Q206.73-3.85 207.03-3.43 207.33-3 208.13-3L208.13-3Q208.93-3 209.83-3.3L209.83-3.3 210.23-2.95 209.83-0.7Q208.48 0.15 207.03 0.3L207.03 0.3Q205.48 0.15 204.6-0.75 203.73-1.65 203.53-3.2L203.53-3.2 203.18-3.2Q201.68-1.9 200.48-1.13 199.28-0.35 197.73 0.25L197.73 0.25Q192.78 0.25 190.13-2.78 187.48-5.8 187.48-11.4L187.48-11.4Q187.48-17.05 190.43-20.18 193.38-23.3 198.58-23.3L198.58-23.3Q200.93-23.3 202.98-22.8L202.98-22.8 202.93-34.75 206.88-35.1ZM198.13-20.5Q194.93-20.5 193.08-18.32 191.23-16.15 191.23-12.05L191.23-12.05Q191.23-7.8 192.9-5.45 194.58-3.1 197.53-3.1L197.53-3.1Q198.93-3.1 200.25-3.8 201.58-4.5 203.03-6.15L203.03-6.15 203.13-9.75 202.98-19.25Q200.33-20.5 198.13-20.5L198.13-20.5ZM222.83-23.3Q226.08-23.3 227.95-21.7 229.83-20.1 229.83-17.3L229.83-17.3Q229.83-16.45 229.53-11.15L229.53-11.15Q229.23-5.85 229.23-4.95L229.23-4.95Q229.23-3.85 229.58-3.43 229.93-3 230.78-3L230.78-3Q231.53-3 232.48-3.3L232.48-3.3 232.88-2.95 232.48-0.7Q231.03 0.15 229.63 0.3L229.63 0.3Q228.08 0.15 227.15-0.8 226.23-1.75 226.18-3.4L226.18-3.4 225.83-3.4Q223.13-0.65 220.48 0.35L220.48 0.35Q217.13 0.35 215.25-1.33 213.38-3 213.38-5.9L213.38-5.9Q213.38-8.1 214.55-9.4 215.73-10.7 218.03-11.25L218.03-11.25 226.13-13.15 226.18-16.4Q226.18-18.35 225.15-19.4 224.13-20.45 222.23-20.45L222.23-20.45Q220.53-20.45 218.83-19.65 217.13-18.85 215.18-17.15L215.18-17.15 214.78-17.35 214.28-20.2Q218.43-23.3 222.83-23.3L222.83-23.3ZM226.08-10.6L218.83-8.85Q217.83-8.55 217.38-8.03 216.93-7.5 216.93-6.45L216.93-6.45Q216.93-4.8 217.85-3.88 218.78-2.95 220.33-2.95L220.33-2.95Q223.08-2.95 225.93-6.5L225.93-6.5 226.08-10.6ZM245.57-3.05Q247.22-3.05 249.17-4.05L249.17-4.05 249.62-3.75 249.22-1.15Q246.52 0.1 244.22 0.3L244.22 0.3Q241.37-0.25 240.12-1.8 238.87-3.35 238.87-6.3L238.87-6.3 239.02-9.85 238.97-20.2 235.82-20.2 235.62-20.5 235.87-22.85 238.92-22.85 238.92-26.55 242.37-28.05 242.77-27.7 242.67-22.85 249.47-22.85 249.67-22.55 249.42-20.2 242.67-20.2 242.42-6.65Q242.37-4.65 243.12-3.85 243.87-3.05 245.57-3.05L245.57-3.05ZM261.87-23.3Q265.12-23.3 267-21.7 268.87-20.1 268.87-17.3L268.87-17.3Q268.87-16.45 268.57-11.15L268.57-11.15Q268.27-5.85 268.27-4.95L268.27-4.95Q268.27-3.85 268.62-3.43 268.97-3 269.82-3L269.82-3Q270.57-3 271.52-3.3L271.52-3.3 271.92-2.95 271.52-0.7Q270.07 0.15 268.67 0.3L268.67 0.3Q267.12 0.15 266.2-0.8 265.27-1.75 265.22-3.4L265.22-3.4 264.87-3.4Q262.17-0.65 259.52 0.35L259.52 0.35Q256.17 0.35 254.3-1.33 252.42-3 252.42-5.9L252.42-5.9Q252.42-8.1 253.6-9.4 254.77-10.7 257.07-11.25L257.07-11.25 265.17-13.15 265.22-16.4Q265.22-18.35 264.2-19.4 263.17-20.45 261.27-20.45L261.27-20.45Q259.57-20.45 257.87-19.65 256.17-18.85 254.22-17.15L254.22-17.15 253.82-17.35 253.32-20.2Q257.47-23.3 261.87-23.3L261.87-23.3ZM265.12-10.6L257.87-8.85Q256.87-8.55 256.42-8.03 255.97-7.5 255.97-6.45L255.97-6.45Q255.97-4.8 256.9-3.88 257.82-2.95 259.37-2.95L259.37-2.95Q262.12-2.95 264.97-6.5L264.97-6.5 265.12-10.6ZM300.07 0L300.32-15.55Q300.37-17.6 299.37-18.75 298.37-19.9 296.42-19.9L296.42-19.9Q293.12-19.9 289.67-16.35L289.67-16.35 289.57-10.05 289.82 0 285.87 0 286.17-9.75 285.92-34.75 289.87-35.1 289.67-19.65 289.97-19.65Q293.07-22.4 296.32-23.2L296.32-23.2Q300.12-23.2 302.07-21.45 304.02-19.7 303.97-16.45L303.97-16.45 303.87-9.95 304.07 0 300.07 0ZM319.21-23.3Q322.46-23.3 324.34-21.7 326.21-20.1 326.21-17.3L326.21-17.3Q326.21-16.45 325.91-11.15L325.91-11.15Q325.61-5.85 325.61-4.95L325.61-4.95Q325.61-3.85 325.96-3.43 326.31-3 327.16-3L327.16-3Q327.91-3 328.86-3.3L328.86-3.3 329.26-2.95 328.86-0.7Q327.41 0.15 326.01 0.3L326.01 0.3Q324.46 0.15 323.54-0.8 322.61-1.75 322.56-3.4L322.56-3.4 322.21-3.4Q319.51-0.65 316.86 0.35L316.86 0.35Q313.51 0.35 311.64-1.33 309.76-3 309.76-5.9L309.76-5.9Q309.76-8.1 310.94-9.4 312.11-10.7 314.41-11.25L314.41-11.25 322.51-13.15 322.56-16.4Q322.56-18.35 321.54-19.4 320.51-20.45 318.61-20.45L318.61-20.45Q316.91-20.45 315.21-19.65 313.51-18.85 311.56-17.15L311.56-17.15 311.16-17.35 310.66-20.2Q314.81-23.3 319.21-23.3L319.21-23.3ZM322.46-10.6L315.21-8.85Q314.21-8.55 313.76-8.03 313.31-7.5 313.31-6.45L313.31-6.45Q313.31-4.8 314.24-3.88 315.16-2.95 316.71-2.95L316.71-2.95Q319.46-2.95 322.31-6.5L322.31-6.5 322.46-10.6ZM348.46 0L348.71-15.55Q348.76-17.6 347.76-18.75 346.76-19.9 344.81-19.9L344.81-19.9Q341.66-19.9 338.01-16.35L338.01-16.35 338.01-10.05 338.21 0 334.26 0 334.51-9.7 334.31-22.65 338.06-23 338.06-19.65 338.36-19.65Q341.46-22.4 344.71-23.2L344.71-23.2Q348.46-23.2 350.44-21.45 352.41-19.7 352.36-16.45L352.36-16.45 352.26-9.95 352.46 0 348.46 0ZM377.56-35.1L377.21-10.05 377.36-4.9Q377.41-3.85 377.71-3.43 378.01-3 378.81-3L378.81-3Q379.61-3 380.51-3.3L380.51-3.3 380.91-2.95 380.51-0.7Q379.16 0.15 377.71 0.3L377.71 0.3Q376.16 0.15 375.28-0.75 374.41-1.65 374.21-3.2L374.21-3.2 373.86-3.2Q372.36-1.9 371.16-1.13 369.96-0.35 368.41 0.25L368.41 0.25Q363.46 0.25 360.81-2.78 358.16-5.8 358.16-11.4L358.16-11.4Q358.16-17.05 361.11-20.18 364.06-23.3 369.26-23.3L369.26-23.3Q371.61-23.3 373.66-22.8L373.66-22.8 373.61-34.75 377.56-35.1ZM368.81-20.5Q365.61-20.5 363.76-18.32 361.91-16.15 361.91-12.05L361.91-12.05Q361.91-7.8 363.58-5.45 365.26-3.1 368.21-3.1L368.21-3.1Q369.61-3.1 370.93-3.8 372.26-4.5 373.71-6.15L373.71-6.15 373.81-9.75 373.66-19.25Q371.01-20.5 368.81-20.5L368.81-20.5ZM390.16-35.1L389.86-10.05 390.11 0 386.16 0 386.46-9.75 386.21-34.75 390.16-35.1ZM414.45-11.65L400.1-11.6 400.1-11.5Q400.1-7.3 402-5.05 403.9-2.8 407.4-2.8L407.4-2.8Q409.15-2.8 410.9-3.38 412.65-3.95 414.1-5L414.1-5 414.5-4.7 413.9-1.3Q410.4 0.4 406.9 0.4L406.9 0.4Q402 0.4 399.2-2.73 396.4-5.85 396.4-11.3L396.4-11.3Q396.4-16.8 399.2-20.05 402-23.3 406.75-23.3L406.75-23.3Q410.75-23.3 412.95-21.03 415.15-18.75 415.15-14.7L415.15-14.7Q415.15-13.35 414.95-12.15L414.95-12.15 414.45-11.65ZM406.75-20.5Q404.25-20.5 402.58-18.88 400.9-17.25 400.35-14.3L400.35-14.3 411.4-14.5 411.5-15.2Q411.5-17.75 410.28-19.13 409.05-20.5 406.75-20.5L406.75-20.5ZM431.85-22.95Q432.45-22.95 433.15-22.85L433.15-22.85 433.15-19 432.7-18.85Q431.85-19.1 430.85-19.1L430.85-19.1Q429.2-19.1 427.83-17.78 426.45-16.45 425.1-13.55L425.1-13.55 425.05-10.05 425.3 0 421.35 0 421.6-9.7 421.4-22.65 425.15-23 425.1-18.3 425.4-18.3Q426.8-20.8 428.5-21.88 430.2-22.95 431.85-22.95L431.85-22.95Z" opacity="1" transform="matrix(1,0,0,1,0,0)" fill="#000000" class="slogan-text-1" data-fill-palette-color="secondary" id="text-1"></path></svg></g></svg></g></svg></g></svg></g></svg></g><defs></defs></svg><rect width="395.52" height="149.9771776607143" fill="none" stroke="none" visibility="hidden"></rect></g></svg></g></svg>